<svg width="122" height="94" viewBox="0 0 122 94" fill="none" xmlns="http://www.w3.org/2000/svg">
<path d="M74.6061 64.1162C74.5101 64.6416 74.556 65.1831 74.7392 65.6848L84.3028 91.8752C84.735 93.0588 85.8607 93.8462 87.1208 93.8462H95.5233C97.6447 93.8462 99.0959 91.7044 98.3095 89.7341L89.4949 67.6493C88.7086 65.679 90.1598 63.5372 92.2812 63.5372H93.8532C95.0969 63.5372 96.2117 64.3046 96.6556 65.4664L106.763 91.917C107.207 93.0788 108.322 93.8462 109.565 93.8462H117.593C119.709 93.8462 121.16 91.7149 120.385 89.7464L89.7681 12.044C88.6618 9.23627 84.5687 9.63553 84.0259 12.6041L74.6061 64.1162Z" fill="#FFE247"/>
<path d="M83.0669 3.53965C83.4038 1.69725 81.9888 0 80.1158 0H43.2218C41.3599 0 39.9476 1.67845 40.266 3.51298L50.2516 61.0502C50.5011 62.4876 51.7485 63.5372 53.2074 63.5372H69.5943C71.043 63.5372 72.2848 62.5019 72.5453 61.0768L83.0669 3.53965Z" fill="#FFE247"/>
<path d="M38.0307 0.055538C38.0644 0.0496775 38.0601 0 38.0259 0V0C38.0145 0 38.0042 0.00691209 38 0.0174744V0.0174744C37.9917 0.0378208 38.009 0.0592972 38.0307 0.055538V0.055538Z" fill="#FFE247"/>
<path d="M33.3917 11.396C34.5243 8.59951 38.6123 9.03645 39.1282 12.0092L48.1802 64.1672C48.2686 64.6769 48.2238 65.2008 48.05 65.688L38.7176 91.854C38.2915 93.0486 37.1602 93.8462 35.8919 93.8462H4.45167C2.32376 93.8462 0.872288 91.6923 1.67105 89.72L33.3917 11.396Z" fill="#FFE247"/>
</svg>
